:SAMPLES-PER-SECOND 24
:FULLY-SPECIFIED
:DEGREES
178
root  15.9221 37.9322 12.877 1.97681 7.69611 -1.43237
RightUpLeg  -39.1436 -36.4275 24.7821
RightLeg  16.9794 -18.2952 -4.45828
RightFoot  9.45894 3.60027 -19.0619
RightToes  -2.08645e-008 3.77894e-005 6.81332e-007
Spine  9.04273 -3.23088 -12.6998
Spine1  14.839 -8.94217 15.1148
HEad  -37.6184 9.52201 0.141903
LeftShoulder1  7.70803 -13.6192 -38.8696
LeftArm  6.3586 -15.4661 -27.2425
LeftForeArm  70.007 -78.7352 -57.2909
LeftHand  -0.943287 -1.64328 15.7037
RightShoulder  3.82309 6.46082 32.4824
RightArm  8.30143 -27.5832 29.4864
RightForeArm  9.34353 26.2228 5.1388
RightHand  -0.306985 10.7934 -2.61248
LeftUpLeg  3.19285 6.508 -0.299225
LeftLeg  26.462 15.819 8.72414
LeftFoot  -23.3386 -1.1794 -12.5115
LeftToes  1.24767e-006 1.47042e-008 1.32732e-009
179
root  15.8586 38.5706 12.1972 1.94067 6.13464 -2.56671
RightUpLeg  -33.9712 -27.156 17.5073
RightLeg  17.9593 -5.62803 -2.31591
RightFoot  13.0758 1.46339 -6.14134
RightToes  -2.08645e-008 3.77894e-005 6.81332e-007
Spine  8.85311 -4.00482 -15.3724
Spine1  12.4825 -10.4913 18.5316
HEad  -34.0916 11.4676 0.24704
LeftShoulder1  7.17457 -13.0634 -37.2243
LeftArm  5.92921 -21.2838 -34.0332
LeftForeArm  76.8739 -79.4504 -64.215
LeftHand  -0.95164 -2.02174 15.059
RightShoulder  3.73504 6.36282 31.9687
RightArm  8.57529 -35.1057 23.3127
RightForeArm  14.0072 38.1346 7.9427
RightHand  -0.0959114 10.4881 -1.1171
LeftUpLeg  3.54573 7.36273 0.769798
LeftLeg  22.9229 16.3415 7.78324
LeftFoot  -19.8887 -0.806692 -12.3386
LeftToes  1.24767e-006 1.47042e-008 1.32732e-009
180
root  15.6901 39.3391 11.7423 2.08459 4.40393 -2.77191
RightUpLeg  -28.6915 -16.963 9.77774
RightLeg  19.5023 -2.64146 -1.2442
RightFoot  9.93308 -0.417317 2.59971
RightToes  -2.08645e-008 3.77894e-005 6.81332e-007
Spine  8.35986 -5.11838 -18.3384
Spine1  10.7248 -12.1194 21.1373
HEad  -31.4393 13.5551 0.80754
LeftShoulder1  6.3558 -12.1594 -34.5592
LeftArm  6.64447 -23.3135 -41.2015
LeftForeArm  95.6928 -80.4258 -82.6776
LeftHand  -0.895674 -1.84252 14.5301
RightShoulder  3.58739 6.27543 30.7849
RightArm  7.62238 -40.4289 19.7806
RightForeArm  17.529 48.9839 11.6002
RightHand  -0.133153 9.29921 -1.45649
LeftUpLeg  4.04004 9.84081 1.98269
LeftLeg  19.5225 14.5401 5.73963
LeftFoot  -14.7522 -0.294887 -12.9094
LeftToes  1.24767e-006 1.47042e-008 1.32732e-009
181
root  15.5289 40.2095 11.2452 2.37415 3.29492 -3.36218
RightUpLeg  -25.3794 -12.9381 6.27163
RightLeg  22.5038 -7.69675 -3.71161
RightFoot  6.92316 0.0319731 0.0504719
RightToes  -2.08645e-008 3.77894e-005 6.81332e-007
Spine  8.15941 -6.36941 -18.0346
Spine1  9.42998 -13.2699 21.4625
HEad  -30.3813 14.4203 1.20209
LeftShoulder1  5.55144 -11.2013 -31.7492
LeftArm  9.83011 -23.321 -47.8973
LeftForeArm  121.616 -80.0765 -107.871
LeftHand  -0.830844 -1.82029 13.5383
RightShoulder  3.46277 6.21421 29.7157
RightArm  4.2334 -44.8834 19.8507
RightForeArm  19.5173 58.5166 16.8649
RightHand  -0.0896145 7.93974 -1.14658
LeftUpLeg  3.76294 9.52227 3.0477
LeftLeg  17.019 14.9024 4.65073
LeftFoot  -8.73136 0.386056 -14.3535
LeftToes  1.24767e-006 1.47042e-008 1.32732e-009
182
root  15.3626 40.8181 10.6844 2.50708 2.00555 -3.90436
RightUpLeg  -22.3411 -10.2304 3.2366
RightLeg  26.2696 -14.0597 -7.64524
RightFoot  5.84957 0.622439 -3.84893
RightToes  -2.08645e-008 3.77894e-005 6.81332e-007
Spine  8.46464 -6.80202 -16.3401
Spine1  8.0558 -13.3682 21.1185
HEad  -30.2419 13.9884 0.863973
LeftShoulder1  5.09637 -10.6402 -30.0181
LeftArm  14.0061 -22.2929 -52.7234
LeftForeArm  142.888 -78.1027 -128.234
LeftHand  -0.761382 -2.29856 11.691
RightShoulder  3.39438 6.18989 29.0852
RightArm  -0.355553 -47.5306 22.2212
RightForeArm  23.8383 65.8354 23.4984
RightHand  -0.092439 7.36868 -1.20282
LeftUpLeg  2.95069 9.04267 3.64004
LeftLeg  15.9466 15.6393 4.52776
LeftFoot  -4.08663 0.921361 -14.092
LeftToes  1.24767e-006 1.47042e-008 1.32732e-009
183
root  15.1661 40.9431 10.1124 2.90479 0.433105 -4.2561
RightUpLeg  -20.0143 -6.46102 -0.258626
RightLeg  30.5257 -15.5716 -9.91305
RightFoot  5.21343 0.840444 -5.51863
RightToes  -2.08645e-008 3.77894e-005 6.81332e-007
Spine  8.16525 -6.62706 -14.7251
Spine1  7.26063 -12.8882 21.0331
HEad  -29.9234 13.0691 0.52449
LeftShoulder1  4.94478 -10.4345 -29.4533
LeftArm  18.3113 -21.1842 -55.1499
LeftForeArm  154.892 -75.9398 -139.039
LeftHand  -0.642687 -2.68415 9.45505
RightShoulder  3.31435 6.15327 28.37
RightArm  -4.57966 -47.3503 26.0368
RightForeArm  31.1898 70.4532 30.0363
RightHand  -0.203179 7.20933 -2.229
LeftUpLeg  1.37211 6.69703 3.6999
LeftLeg  16.8009 14.8452 5.04676
LeftFoot  -3.02043 0.906166 -12.1269
LeftToes  1.24767e-006 1.47042e-008 1.32732e-009
